Coordinates
version=1
nRows=17
nColumns=24
inDegrees=yes

Units are S.I. units (second, meters, Newtons, ...)
Angles are in degrees.

endheader
time	pelvis_tilt	pelvis_list	pelvis_rotation	pelvis_tx	pelvis_ty	pelvis_tz	hip_flexion_r	hip_adduction_r	hip_rotation_r	knee_angle_r	ankle_angle_r	subtalar_angle_r	mtp_angle_r	hip_flexion_l	hip_adduction_l	hip_rotation_l	knee_angle_l	ankle_angle_l	subtalar_angle_l	mtp_angle_l	lumbar_extension	lumbar_bending	lumbar_rotation
      1.53000000	     23.22897083	     -7.83244961	      4.21135515	     -0.23988512	      0.90802052	     -0.01420624	     -4.60379171	     10.48099756	      4.77301294	    -16.14095001	      7.05901310	    -22.84185035	     22.38944402	    -33.21246512	     -5.56787801	     23.51677266	      0.56363919	     -0.47339669	    -45.45021468	     19.33925778	    -30.38642080	      7.83562521	     -0.79849582
      1.53500000	     23.11322399	     -7.90806794	      3.86651564	     -0.23373549	      0.90691705	     -0.01382098	     -4.79703685	     10.54012851	      6.24977962	    -13.72528773	      5.94056529	    -24.22134699	     22.90442592	    -33.58394896	     -5.41567359	     22.82317513	      0.52778507	      0.25305960	    -44.78652668	     19.48975869	    -30.23935406	      7.81362693	     -0.46812754
      1.54000000	     22.93632258	     -7.92485264	      3.45618732	     -0.22754437	      0.90568509	     -0.01334267	     -4.93257214	     10.49134772	      7.78099929	    -11.34237767	      4.65388710	    -25.74158159	     25.69705885	    -33.84782222	     -5.15242109	     21.96929151	      0.36116945	      1.34910371	    -43.55835248	     19.44453141	    -30.02856027	      7.70391289	     -0.12792326
      1.54500000	     22.83191212	     -7.92824822	      3.21377775	     -0.22135076	      0.90446117	     -0.01316966	     -5.21175950	     10.39942681	      9.16310653	     -8.85316460	      3.34441774	    -27.14197147	     25.88963376	    -34.22204330	     -4.97710112	     21.53170175	      0.34860848	      1.81997192	    -43.36732850	     19.39358126	    -29.87459598	      7.67042286	      0.07530249
      1.55000000	     22.66041149	     -7.86919249	      2.89169817	     -0.21516427	      0.90310656	     -0.01284594	     -5.39717274	     10.20377332	     10.61527234	     -6.47525268	      2.06364656	    -28.46672459	     26.31433773	    -34.50398821	     -4.69826484	     20.98817229	      0.26872078	      2.53427839	    -42.67579731	     19.43062925	    -29.65709562	      7.53321037	      0.32613197
      1.55500000	     22.46201352	     -7.76947052	      2.57342755	     -0.20897005	      0.90166578	     -0.01257340	     -5.53058071	      9.92949946	     11.97836779	     -4.19914019	      0.81337330	    -29.63789634	     26.96052792	    -34.72698997	     -4.36936002	     20.45718799	      0.12604033	      3.29749358	    -41.95509194	     19.41454462	    -29.40636965	      7.36628460	      0.55342921
      1.56000000	     22.26248113	     -7.63797700	      2.26280792	     -0.20278962	      0.90016831	     -0.01232140	     -5.62623154	      9.59954001	     13.23895851	     -2.05464537	     -0.35958540	    -30.60230117	     27.71571889	    -34.93860042	     -4.01208453	     19.95928659	     -0.02842054	      4.04547430	    -41.24620556	     19.34143334	    -29.15365479	      7.17497133	      0.76106465
      1.56500000	     22.04310868	     -7.47287818	      1.96448974	     -0.19662236	      0.89861696	     -0.01210274	     -5.65710987	      9.22079363	     14.37285301	     -0.06086471	     -1.42516660	    -31.34054987	     28.53486441	    -35.10413755	     -3.62325170	     19.48818006	     -0.22350485	      4.79715294	    -40.54237635	     19.21547470	    -28.87739699	      6.96072074	      0.92823967
      1.57000000	     21.82796829	     -7.27874309	      1.69679217	     -0.19048342	      0.89705341	     -0.01189853	     -5.64171847	      8.81474658	     15.33210579	      1.75972495	     -2.33229955	    -31.80398793	     29.37028605	    -35.24474937	     -3.22159897	     19.04272662	     -0.46414953	      5.53026577	    -39.84172721	     19.03692532	    -28.60364539	      6.72701963	      1.04978609
      1.57500000	     21.61213633	     -7.08848875	      1.44135501	     -0.18435610	      0.89547300	     -0.01172527	     -5.57836455	      8.41812782	     16.17320913	      3.40175992	     -3.06693542	    -31.96433532	     30.10386796	    -35.39051395	     -2.83365766	     18.65040170	     -0.68101291	      6.22697472	    -39.16997014	     18.83078398	    -28.32769298	      6.50963379	      1.18464395
      1.58000000	     21.42663830	     -6.89590526	      1.25041242	     -0.17827580	      0.89393773	     -0.01163155	     -5.48056706	      8.04557864	     16.73742693	      4.80660012	     -3.41915481	    -31.43788989	     30.18050708	    -35.59598878	     -2.48739350	     18.49228930	     -0.79124629	      6.46827961	    -39.22387567	     18.82365341	    -28.08256925	      6.31550036	      1.26718846
      1.58500000	     21.18716886	     -6.73199187	      0.97505368	     -0.17217702	      0.89232793	     -0.01134795	     -5.30222590	      7.71387163	     17.49466032	      6.07862485	     -3.97563663	    -31.47133489	     30.60723315	    -35.67635156	     -2.11542006	     17.95012069	     -1.10300621	      7.44784797	    -38.06257253	     18.85103179	    -27.78426629	      6.11412269	      1.46346432
      1.59000000	     20.99267579	     -6.53785672	      0.76890700	     -0.16613609	      0.89080414	     -0.01115549	     -5.12409803	      7.38011510	     18.01688098	      7.14410438	     -4.22012803	    -31.04162530	     30.92943489	    -35.80957150	     -1.75297831	     17.59343195	     -1.35411259	      7.92221929	    -37.57482835	     18.77002131	    -27.53508764	      5.90988529	      1.53317230
      1.59500000	     20.85374427	     -6.37560141	      0.65993609	     -0.16014018	      0.88937418	     -0.01110780	     -4.99162466	      7.10856972	     18.35136503	      8.08000708	     -4.54477102	    -30.57479858	     31.00182863	    -36.01473650	     -1.47650252	     17.47091532	     -1.54389828	      8.19771036	    -37.54393935	     18.77195609	    -27.34194609	      5.78069440	      1.59727714
      1.60000000	     20.70546103	     -6.26638280	      0.51860585	     -0.15405472	      0.88797301	     -0.01092013	     -4.79857415	      6.93357290	     18.64183017	      8.76304048	     -4.56885576	    -29.86987628	     31.48920730	    -36.13734725	     -1.22945785	     16.89619946	     -1.94889018	      9.23121793	    -36.11581006	     18.77801478	    -27.13334614	      5.68694932	      1.68652988
      1.60500000	     20.57721908	     -6.14554667	      0.44265295	     -0.14810202	      0.88661947	     -0.01084654	     -4.61804636	      6.75877315	     18.94813772	      9.33853637	     -4.77124153	    -29.49592883	     31.53958666	    -36.33728658	     -1.01326773	     16.78571347	     -2.16050416	      9.43261887	    -36.14640547	     18.77122153	    -26.95705357	      5.61088800	      1.70125379
      1.61000000	     20.43250099	     -6.06370223	      0.31290018	     -0.14213405	      0.88530860	     -0.01060974	     -4.32363640	      6.68670782	     19.09004412	      9.55553926	     -4.51150893	    -28.54941889	     31.93186829	    -36.44217372	     -0.80057585	     16.28446872	     -2.58281649	     10.31031977	    -35.04642555	     18.78328101	    -26.76555722	      5.54429429	      1.84557822
